<svg width="55" height="30" viewBox="0 0 55 30" fill="none" xmlns="http://www.w3.org/2000/svg">
<path id="Icon zocial-opentable" d="M0.187988 13.526V11.368C0.187988 10.2954 1.41532 9.37837 3.86999 8.61703C6.77343 7.79494 9.78309 7.40971 12.8 7.47403C15.8169 7.40971 18.8265 7.79494 21.73 8.61703C24.1847 9.37903 25.412 10.296 25.412 11.368V13.526C25.384 14.5987 24.1427 15.5087 21.688 16.256C18.7962 17.061 15.8021 17.4387 12.801 17.377C9.79981 17.4393 6.80569 17.0617 3.91399 16.256C1.45865 15.5074 0.216655 14.5974 0.187988 13.526ZM12.335 3.24203V2.10003C12.3903 1.56337 13.2933 1.10503 15.044 0.725034C17.12 0.313203 19.2337 0.121808 21.35 0.154034C23.4593 0.121023 25.5662 0.312433 27.635 0.725034C29.3683 1.1057 30.264 1.56403 30.322 2.10003H30.364V3.24203H30.322C30.2653 3.8067 29.3697 4.27937 27.635 4.66003C25.5662 5.07263 23.4593 5.26404 21.35 5.23103C19.2337 5.26326 17.12 5.07186 15.044 4.66003C13.294 4.27937 12.391 3.8067 12.335 3.24203ZM21.265 24.15V21.44C21.3777 19.8607 23.0283 18.5274 26.217 17.44C29.925 16.2773 33.7979 15.7277 37.683 15.813C41.5624 15.7267 45.4297 16.277 49.131 17.442C52.305 18.5267 53.949 19.86 54.063 21.442V24.152C53.9783 25.7034 52.3413 27.0294 49.152 28.13C45.446 29.3083 41.5708 29.8662 37.683 29.781C33.7972 29.8654 29.9236 29.3152 26.215 28.152C23.0283 27.0647 21.379 25.7307 21.265 24.15ZM30.913 9.71303V7.94003C30.9683 7.1227 32.035 6.43137 34.113 5.86603C36.5405 5.25944 39.0373 4.97499 41.539 5.02003C44.041 4.97502 46.5382 5.25946 48.966 5.86603C51.0387 6.4307 52.1053 7.12203 52.166 7.94003V9.71303C52.166 10.5317 51.1287 11.237 49.054 11.829C46.6026 12.4685 44.0749 12.7677 41.542 12.718C39.0091 12.7675 36.4814 12.4684 34.03 11.829C31.952 11.2397 30.913 10.5344 30.913 9.71303Z" fill="#21999D"/>
</svg>
