<svg width="45" height="44" viewBox="0 0 45 44" fill="none" xmlns="http://www.w3.org/2000/svg">
<g id="Layer_x0020_1">
<path id="Path 827" fill-rule="evenodd" clip-rule="evenodd" d="M19.772 18.0677H9.57197V5.45167C9.54034 5.221 9.56252 4.98614 9.63677 4.76547C9.71102 4.54479 9.83532 4.3443 9.99996 4.17966C10.1646 4.01502 10.3651 3.89072 10.5858 3.81647C10.8064 3.74222 11.0413 3.72004 11.272 3.75167H17.893C19.029 3.75167 19.251 4.27967 19.746 4.94067L21.74 7.59967C23.439 9.87767 24.999 9.47767 27.642 9.47767L33.896 9.48667C35.543 9.65867 35.337 11.0867 35.337 12.3407H28.894C27.287 12.3407 25.535 14.0187 24.221 15.0937L21.139 17.5587C20.9583 17.734 20.7431 17.8698 20.507 17.9573C20.271 18.0447 20.0193 18.082 19.768 18.0667L19.772 18.0677ZM6.70597 4.82567V18.0677C5.02897 18.0677 3.60597 17.8937 2.20597 19.2947C0.86497 20.6347 0.97897 21.9567 0.97897 23.5257C1.05576 25.5525 1.39183 27.5612 1.97897 29.5027C2.83597 32.9187 3.86397 37.4257 4.77197 40.6677C4.99619 41.5279 5.48445 42.2962 6.16807 42.8645C6.85169 43.4327 7.69625 43.7724 8.58297 43.8357H36.321C37.2957 43.7561 38.2167 43.3559 38.94 42.6977C39.636 42.0201 40.1019 41.1411 40.272 40.1847L43.314 28.0167C44.15 24.7057 44.014 21.0607 44.014 17.4407C44.1323 16.1734 43.7681 14.9081 42.994 13.8977C41.638 12.1687 39.966 12.3407 38.194 12.3407C38.194 10.4687 38.385 9.52267 37.094 7.98167C35.594 6.18867 33.114 6.61467 31.125 6.61467H27.463C26.284 6.61467 24.843 6.79067 24.263 6.14367C22.662 4.34967 21.287 0.888672 18.516 0.888672H10.642C9.89805 0.944145 9.18159 1.19327 8.56374 1.61131C7.94589 2.02935 7.44815 2.60176 7.11997 3.27167C6.87836 3.75643 6.7372 4.285 6.70497 4.82567H6.70597Z" fill="#21999D"/>
</g>
</svg>
