<svg width="57" height="55" viewBox="0 0 57 55" fill="none" xmlns="http://www.w3.org/2000/svg">
<path id="Icon simple-openvpn" d="M28.417 0.456212C21.0478 0.431471 13.9697 3.33116 8.73596 8.519C3.50219 13.7068 0.540224 20.7591 0.500008 28.1282C0.496387 32.9421 1.76253 37.6718 4.1707 41.8401C6.57886 46.0084 10.0438 49.4678 14.216 51.8692L16.007 40.0602C14.2385 38.0602 12.9815 35.6611 12.3438 33.0686C11.7061 30.4762 11.7068 27.7677 12.3458 25.1756C12.9848 22.5834 14.243 20.1849 16.0126 18.1858C17.7821 16.1868 20.0101 14.6467 22.5056 13.6979C25.001 12.749 27.6894 12.4196 30.3401 12.7379C32.9908 13.0562 35.5247 14.0128 37.7245 15.5255C39.9244 17.0382 41.7245 19.0619 42.9704 21.4231C44.2163 23.7843 44.8709 26.4125 44.878 29.0822C44.8596 33.1844 43.3305 37.136 40.583 40.1822L42.374 51.9952C46.5984 49.6008 50.1147 46.1321 52.5663 41.9406C55.0179 37.7492 56.3178 32.984 56.334 28.1282C56.2938 20.7591 53.3318 13.7068 48.0981 8.519C42.8643 3.33116 35.7862 0.431471 28.417 0.456212ZM28.3 19.4302C27.1396 19.4272 25.9901 19.6535 24.9174 20.0961C23.8447 20.5387 22.8701 21.1889 22.0495 22.0093C21.2289 22.8297 20.5785 23.8042 20.1356 24.8768C19.6928 25.9493 19.4662 27.0988 19.469 28.2592C19.4567 30.0549 20.0004 31.8103 21.0254 33.2847C22.0504 34.7591 23.5066 35.8802 25.194 36.4942L21.74 54.6262H34.861L31.523 36.4912C33.4419 35.742 35.0385 34.3456 36.0368 32.5437C37.035 30.7418 37.3721 28.6477 36.9897 26.6236C36.6074 24.5994 35.5295 22.7726 33.9427 21.459C32.3559 20.1455 30.3599 19.4278 28.3 19.4302Z" fill="#21999D"/>
</svg>
