<svg width="51" height="51" viewBox="0 0 51 51" fill="none" xmlns="http://www.w3.org/2000/svg">
<path id="Icon simple-openstreetmap" d="M5.96907 50.5368C5.23307 50.3508 4.85207 50.0478 2.89307 48.0948C0.559068 45.7668 0.411068 45.5388 0.419068 44.3258C0.419068 42.9768 0.00906801 43.4598 7.46107 35.9908C14.9891 28.4468 14.6021 28.7748 15.9611 28.7788C16.4145 28.7362 16.8697 28.8388 17.2611 29.0718L17.8401 29.3648L21.4821 25.7168L21.0261 24.9998C20.0618 23.4285 19.353 21.7142 18.9261 19.9208C18.451 17.8116 18.4078 15.628 18.7991 13.5016C19.1904 11.3753 20.0081 9.35011 21.2029 7.54819C22.3978 5.74627 23.945 4.20487 25.7514 3.01686C27.5578 1.82885 29.5861 1.0188 31.7139 0.635537C33.8417 0.25227 36.0251 0.303711 38.1325 0.786761C40.2399 1.26981 42.2278 2.17447 43.9762 3.44624C45.7247 4.71801 47.1976 6.33056 48.3063 8.18675C49.4149 10.0429 50.1363 12.1043 50.4271 14.2468C50.5735 15.6887 50.5735 17.1418 50.4271 18.5838C49.9598 22.0791 48.3367 25.3176 45.8161 27.7838C44.6489 28.9972 43.273 29.9907 41.7541 30.7168C39.8844 31.6885 37.8328 32.2603 35.7301 32.3958C32.3081 32.6381 28.8977 31.7868 25.9911 29.9648L25.2741 29.5088L21.6271 33.1558L21.9201 33.7408C22.1532 34.1284 22.2559 34.5805 22.2131 35.0308C22.2191 36.3918 22.5391 36.0078 15.0491 43.4968C9.27907 49.2608 8.39107 50.1168 7.94707 50.3168C7.32462 50.5837 6.63723 50.6609 5.97107 50.5388L5.96907 50.5368ZM36.9431 29.5868C39.5642 29.105 41.9816 27.8508 43.8848 25.9852C45.788 24.1195 47.0902 21.7277 47.6242 19.1166C48.1581 16.5056 47.8995 13.7945 46.8815 11.3315C45.8636 8.86848 44.1327 6.76593 41.9111 5.29378C40.4008 4.32066 38.722 3.63829 36.9611 3.28178C35.2856 3.04206 33.5833 3.0596 31.9131 3.33378C30.0718 3.71826 28.3287 4.47546 26.7911 5.55878C25.6243 6.45588 24.5792 7.50099 23.6821 8.66778C22.3528 10.534 21.5251 12.7103 21.2782 14.9882C21.0313 17.2661 21.3735 19.5692 22.272 21.6769C23.1704 23.7847 24.5951 25.6263 26.4095 27.0255C28.2239 28.4247 30.3672 29.3345 32.6341 29.6678C34.071 29.8228 35.5216 29.7969 36.9521 29.5908L36.9431 29.5868ZM29.1261 45.0098C27.5894 44.5778 26.0587 44.1241 24.5341 43.6488C24.4821 43.5898 27.0581 34.4568 27.1621 34.3488C27.2101 34.2948 36.0321 36.7578 36.3921 36.9328C36.5221 36.9868 36.3861 37.5328 35.2921 41.3328C34.8447 42.8894 34.4021 44.4478 33.9641 46.0078C33.9121 46.1898 33.8201 46.3338 33.7641 46.3338C33.7081 46.3338 31.6141 45.7338 29.1241 45.0148L29.1261 45.0098ZM35.2151 46.1098C35.2151 45.9988 37.7811 37.0498 37.8201 37.0198C37.9201 36.9488 46.8611 34.4478 46.8971 34.4878C46.9331 34.5278 44.3911 43.5528 44.3261 43.6008C44.2841 43.6408 35.6991 46.0908 35.4201 46.1478C35.3071 46.1708 35.2201 46.1478 35.2201 46.1078L35.2151 46.1098ZM20.3581 42.1098C22.1271 40.3278 23.7021 38.7098 23.8581 38.4968C24.3002 37.8478 24.6336 37.1311 24.8451 36.3748C24.9132 36.0144 24.9536 35.6493 24.9661 35.2828L24.9891 34.6408L25.3701 34.5338C25.5052 34.4844 25.6482 34.4604 25.7921 34.4628C25.8401 34.5148 23.2681 43.4978 23.1871 43.5798C23.1451 43.6128 21.7711 44.0248 20.1261 44.4918L17.1461 45.3388L20.3611 42.1168L20.3581 42.1098ZM37.6901 35.7098C37.6398 35.5826 37.5987 35.4519 37.5671 35.3188L37.4751 34.9928L37.8011 34.9338C40.7655 34.3881 43.5629 33.1619 45.9731 31.3518C46.3081 31.0908 46.5001 30.9938 46.5271 31.0718C46.6401 31.4168 47.0961 33.0578 47.0811 33.0768C47.0101 33.1478 37.7131 35.7578 37.6881 35.7138L37.6901 35.7098ZM6.15307 32.9928C6.05307 32.9108 3.68807 24.9088 3.51007 24.0228C3.47707 23.8468 3.81507 23.9308 8.05607 25.1438C12.4911 26.4068 12.6391 26.4588 12.7021 26.6908C12.7611 26.8908 12.7251 26.9608 12.4411 27.1568C12.2651 27.2798 10.8331 28.6708 9.25607 30.2498C8.30207 31.2171 7.3334 32.1698 6.35007 33.1078C6.2781 33.0843 6.21196 33.0458 6.15607 32.9948L6.15307 32.9928ZM7.87007 23.8388C5.38607 23.1218 3.34507 22.5388 3.33907 22.5298C3.30607 22.5048 5.97607 13.2608 6.02607 13.2038C6.07607 13.1468 15.2721 15.7358 15.3711 15.8218C15.3901 15.8408 14.8091 17.9488 14.0791 20.5038C12.8791 24.7278 12.7341 25.1538 12.5671 25.1458C12.4671 25.1398 10.3531 24.5458 7.86707 23.8368L7.87007 23.8388ZM14.0571 24.9638C14.0821 24.8988 14.5001 23.4518 14.9851 21.7558L15.8631 18.6698L15.9801 19.3408C16.1986 20.5797 16.5231 21.7975 16.9501 22.9808C17.1721 23.5998 17.3411 24.1078 17.3281 24.1208C17.3151 24.1338 16.6341 24.3318 15.8281 24.5638C15.0221 24.7958 14.2791 25.0028 14.1841 25.0318C14.0631 25.0648 14.0271 25.0448 14.0611 24.9608L14.0571 24.9638ZM10.6381 13.1978C8.15607 12.4888 6.10707 11.8698 6.08007 11.8298C5.99607 11.6998 3.47507 2.79478 3.50807 2.75878C3.56207 2.70678 12.5201 5.27678 12.6081 5.36378C12.7081 5.47078 15.2841 14.5198 15.2131 14.5138L10.6501 13.1988L10.6381 13.1978ZM15.1291 9.61678L14.0441 5.83878L13.8811 5.25378L17.4211 4.24378C19.3741 3.68978 21.0211 3.20878 21.1011 3.18178C21.1811 3.15478 20.9271 3.47478 20.5571 3.88178C18.6203 6.01312 17.2153 8.57252 16.4571 11.3508C16.3392 11.7352 16.247 12.1271 16.1811 12.5238C16.1811 13.1368 15.9411 12.4718 15.1251 9.61778L15.1291 9.61678Z" fill="#21999D"/>
</svg>
